<svg width="351" height="42" viewBox="0 0 351 42" fill="none" xmlns="http://www.w3.org/2000/svg">
<path d="M18.7 22.65C21 23.0833 22.8667 23.9333 24.3 25.2C25.7667 26.4666 26.5 28.3666 26.5 30.9C26.5 34.6 25.1667 37.2166 22.5 38.75C19.8667 40.25 16.1667 41 11.4 41H0.25V6.34995H10.05C14.9167 6.34995 18.6333 7.04995 21.2 8.44995C23.7667 9.81662 25.05 12.0666 25.05 15.2C25.05 17.2333 24.4333 18.8833 23.2 20.15C22 21.3833 20.5 22.2166 18.7 22.65ZM8.45 12.15V20.2H11.5C14.9667 20.2 16.7 18.8 16.7 16C16.7 14.6 16.2333 13.6166 15.3 13.05C14.3667 12.45 12.8833 12.15 10.85 12.15H8.45ZM11.45 35.05C13.6167 35.05 15.25 34.7333 16.35 34.1C17.4833 33.4333 18.05 32.2166 18.05 30.45C18.05 27.25 16.05 25.65 12.05 25.65H8.45V35.05H11.45Z" fill="#141414"/>
<path d="M45.3594 13.7C46.326 13.7 47.2094 13.8166 48.0094 14.05L46.7594 21.7C45.7594 21.4666 44.9594 21.35 44.3594 21.35C42.7927 21.35 41.5927 21.9 40.7594 23C39.9594 24.0666 39.326 25.6833 38.8594 27.85V41H30.9594V14.45H37.8594L38.5094 19.6C39.1094 17.7666 40.0094 16.3333 41.2094 15.3C42.4427 14.2333 43.826 13.7 45.3594 13.7Z" fill="#141414"/>
<path d="M73.4277 41H66.5777L66.2277 37.65C64.2944 40.45 61.6111 41.85 58.1777 41.85C55.7444 41.85 53.8944 41.1166 52.6277 39.65C51.3944 38.1833 50.7777 36.1333 50.7777 33.5V14.45H58.6777V32.5C58.6777 33.8 58.8777 34.7166 59.2777 35.25C59.7111 35.75 60.3611 36 61.2277 36C62.8944 36 64.3277 34.9666 65.5277 32.9V14.45H73.4277V41Z" fill="#141414"/>
<path d="M95.191 13.6C97.491 13.6 99.291 14.3 100.591 15.7C101.891 17.1 102.541 19.0666 102.541 21.6V41H94.641V22.95C94.641 21.6166 94.4243 20.7 93.991 20.2C93.591 19.6666 92.9743 19.4 92.141 19.4C90.541 19.4 89.0077 20.55 87.541 22.85V41H79.641V14.45H86.541L87.091 17.6C88.2243 16.2666 89.441 15.2666 90.741 14.6C92.0743 13.9333 93.5577 13.6 95.191 13.6Z" fill="#141414"/>
<path d="M119.998 13.6C124.065 13.6 127.248 14.85 129.548 17.35C131.848 19.8166 132.998 23.2833 132.998 27.75C132.998 30.5833 132.465 33.0666 131.398 35.2C130.365 37.3 128.865 38.9333 126.898 40.1C124.965 41.2666 122.665 41.85 119.998 41.85C115.965 41.85 112.782 40.6166 110.448 38.15C108.148 35.65 106.998 32.1666 106.998 27.7C106.998 24.8666 107.515 22.4 108.548 20.3C109.615 18.1666 111.115 16.5166 113.048 15.35C115.015 14.1833 117.332 13.6 119.998 13.6ZM119.998 19.4C118.398 19.4 117.198 20.0833 116.398 21.45C115.598 22.7833 115.198 24.8666 115.198 27.7C115.198 30.6 115.582 32.7166 116.348 34.05C117.148 35.3833 118.365 36.05 119.998 36.05C121.598 36.05 122.798 35.3833 123.598 34.05C124.398 32.6833 124.798 30.5833 124.798 27.75C124.798 24.85 124.398 22.7333 123.598 21.4C122.832 20.0666 121.632 19.4 119.998 19.4Z" fill="#141414"/>
<path d="M184.113 41H176.063L175.463 27.45C175.296 24.2166 175.213 21.3333 175.213 18.8C175.213 16.8666 175.263 15.0333 175.363 13.3L170.013 37.35H162.263L156.563 13.3C156.763 16.2 156.863 18.9333 156.863 21.5C156.863 23.4333 156.813 25.45 156.713 27.55L156.113 41H148.113L150.713 6.34995H161.063L166.263 29.85L171.113 6.34995H181.513L184.113 41Z" fill="#141414"/>
<path d="M200.37 13.6C204.436 13.6 207.62 14.85 209.92 17.35C212.22 19.8166 213.37 23.2833 213.37 27.75C213.37 30.5833 212.836 33.0666 211.77 35.2C210.736 37.3 209.236 38.9333 207.27 40.1C205.336 41.2666 203.036 41.85 200.37 41.85C196.336 41.85 193.153 40.6166 190.82 38.15C188.52 35.65 187.37 32.1666 187.37 27.7C187.37 24.8666 187.886 22.4 188.92 20.3C189.986 18.1666 191.486 16.5166 193.42 15.35C195.386 14.1833 197.703 13.6 200.37 13.6ZM200.37 19.4C198.77 19.4 197.57 20.0833 196.77 21.45C195.97 22.7833 195.57 24.8666 195.57 27.7C195.57 30.6 195.953 32.7166 196.72 34.05C197.52 35.3833 198.736 36.05 200.37 36.05C201.97 36.05 203.17 35.3833 203.97 34.05C204.77 32.6833 205.17 30.5833 205.17 27.75C205.17 24.85 204.77 22.7333 203.97 21.4C203.203 20.0666 202.003 19.4 200.37 19.4Z" fill="#141414"/>
<path d="M233.619 13.6C235.919 13.6 237.719 14.3 239.019 15.7C240.319 17.1 240.969 19.0666 240.969 21.6V41H233.069V22.95C233.069 21.6166 232.852 20.7 232.419 20.2C232.019 19.6666 231.402 19.4 230.569 19.4C228.969 19.4 227.435 20.55 225.969 22.85V41H218.069V14.45H224.969L225.519 17.6C226.652 16.2666 227.869 15.2666 229.169 14.6C230.502 13.9333 231.985 13.6 233.619 13.6Z" fill="#141414"/>
<path d="M263.576 39.75C262.609 40.4166 261.476 40.9333 260.176 41.3C258.91 41.6666 257.643 41.85 256.376 41.85C250.576 41.8166 247.676 38.6166 247.676 32.25V19.95H243.926V14.45H247.676V8.69995L255.576 7.79995V14.45H261.676L260.826 19.95H255.576V32.15C255.576 33.3833 255.776 34.2666 256.176 34.8C256.576 35.3333 257.21 35.6 258.076 35.6C258.976 35.6 259.926 35.3166 260.926 34.75L263.576 39.75Z" fill="#141414"/>
<path d="M288.484 27.2C288.484 28.3 288.434 29.25 288.334 30.05H271.884C272.151 32.2833 272.784 33.85 273.784 34.75C274.784 35.65 276.168 36.1 277.934 36.1C279.001 36.1 280.034 35.9166 281.034 35.55C282.034 35.15 283.118 34.55 284.284 33.75L287.534 38.15C284.434 40.6166 280.984 41.85 277.184 41.85C272.884 41.85 269.584 40.5833 267.284 38.05C264.984 35.5166 263.834 32.1166 263.834 27.85C263.834 25.15 264.318 22.7333 265.284 20.6C266.251 18.4333 267.668 16.7333 269.534 15.5C271.401 14.2333 273.634 13.6 276.234 13.6C280.068 13.6 283.068 14.8 285.234 17.2C287.401 19.6 288.484 22.9333 288.484 27.2ZM280.734 24.95C280.668 20.8833 279.234 18.85 276.434 18.85C275.068 18.85 274.001 19.35 273.234 20.35C272.501 21.35 272.051 23 271.884 25.3H280.734V24.95Z" fill="#141414"/>
<path d="M300.822 14.45V41H292.922V14.45H300.822ZM296.822 0.449951C298.189 0.449951 299.306 0.883285 300.172 1.74995C301.072 2.58328 301.522 3.64995 301.522 4.94995C301.522 6.24995 301.072 7.33329 300.172 8.19995C299.306 9.03329 298.189 9.44995 296.822 9.44995C295.456 9.44995 294.339 9.03329 293.472 8.19995C292.606 7.33329 292.172 6.24995 292.172 4.94995C292.172 3.64995 292.606 2.58328 293.472 1.74995C294.339 0.883285 295.456 0.449951 296.822 0.449951Z" fill="#141414"/>
<path d="M321.434 13.7C322.4 13.7 323.284 13.8166 324.084 14.05L322.834 21.7C321.834 21.4666 321.034 21.35 320.434 21.35C318.867 21.35 317.667 21.9 316.834 23C316.034 24.0666 315.4 25.6833 314.934 27.85V41H307.034V14.45H313.934L314.584 19.6C315.184 17.7666 316.084 16.3333 317.284 15.3C318.517 14.2333 319.9 13.7 321.434 13.7Z" fill="#141414"/>
<path d="M337.088 13.6C341.155 13.6 344.338 14.85 346.638 17.35C348.938 19.8166 350.088 23.2833 350.088 27.75C350.088 30.5833 349.555 33.0666 348.488 35.2C347.455 37.3 345.955 38.9333 343.988 40.1C342.055 41.2666 339.755 41.85 337.088 41.85C333.055 41.85 329.872 40.6166 327.538 38.15C325.238 35.65 324.088 32.1666 324.088 27.7C324.088 24.8666 324.605 22.4 325.638 20.3C326.705 18.1666 328.205 16.5166 330.138 15.35C332.105 14.1833 334.422 13.6 337.088 13.6ZM337.088 19.4C335.488 19.4 334.288 20.0833 333.488 21.45C332.688 22.7833 332.288 24.8666 332.288 27.7C332.288 30.6 332.672 32.7166 333.438 34.05C334.238 35.3833 335.455 36.05 337.088 36.05C338.688 36.05 339.888 35.3833 340.688 34.05C341.488 32.6833 341.888 30.5833 341.888 27.75C341.888 24.85 341.488 22.7333 340.688 21.4C339.922 20.0666 338.722 19.4 337.088 19.4Z" fill="#141414"/>
</svg>
